<?xml version="1.0" encoding="UTF-8"?>
<svg xmlns="http://www.w3.org/2000/svg" width="100" height="100" viewBox="0 0 100 100">
	<path d="M 50.0 75.0 A 12.5 12.5 0 0 1 50.0 100 L 50.0 100.0 L 47.65056577085657 99.81963251372825 L 45.31811141240391 99.52920773900323 L 43.00777636509746 99.12992401418417 L 40.72462492800663 98.6232189110701 L 38.47363515961467 98.01076481963528 L 36.25968802756796 97.29446401958944 L 34.08755683101591 96.47644325240316 L 31.96189691845078 95.55904780852433 L 29.88723572317531 94.54483514555739 L 27.867963137697096 93.43656805418294 L 25.908322247474185 92.23720738955704 L 24.012400443518665 90.94990438684775 L 22.1841209324064 89.5779925804355 L 20.427234661243883 88.12497934712707 L 18.74531267410991 86.59453709450148 L 17.14173891542294 84.99049411622775 L 15.61970349458733 83.31682513685703 L 14.182196425145552 81.57764156920437 L 12.832001850512047 79.77718150798796 L 11.571692767189996 77.91979948389248 L 10.4036262551782 76.0099560026615 L 9.329939224063665 74.05220689420504 L 8.35254468207032 72.05119249702952 L 7.473128534097087 70.01162670355842 L 6.693146913533434 67.93828589211358 L 6.0138240513899515 65.83599777146736 L 5.436150685027856 63.70963016395617 L 4.960883007518657 61.56407975316574 L 4.5885421574156116 59.40426082215827 L 4.319414247474878 57.23509400811068 L 4.153550929629835 55.061495099074456 L 4.090770492299509 52.888363898348416 L 4.130659484903818 50.720573181679775 L 4.272574863267776 48.562957772175615 L 4.515646648426033 46.420303757417074 L 4.858781090191262 44.29733787282415 L 5.3006643257271335 42.198717074821786 L 5.839766522271681 40.12901832680646 L 6.47434649209186 38.09272862031256 L 7.202456766718086 36.094235253127366 L 8.021949116509692 34.13781638540585 L 8.930480500641842 32.22763189409358 L 9.92551943168253 30.367714545179787 L 11.004352738048063 28.56196150247368 L 12.164092706787155 26.81412619072977 L 13.401684588350644 25.127810530043217 L 14.713914444257128 23.506457557495374 L 16.09741731786526 21.953344451057667 L 17.54868570781349 20.471575969758703 L 19.064078323088545 19.064078323088548 L 20.63982909813614 17.733593481558152 L 22.272056445932005 16.482673939253164 L 23.95677272648978 15.31367793812245 L 25.689893907895357 14.228765162625194 L 27.46724939662472 13.229892912229767 L 29.284592013626245 12.318812758113868 L 31.13760809242763 11.497067689263607 L 33.02192767536311 10.765989752009812 L 34.933134783909146 10.12669818587691 L 36.86677773906473 9.580098057455977 L 38.81837950771733 9.126879392850803 L 40.783448050996085 8.767516808087922 L 42.757486650729874 8.50226963573015 L 44.736004190299234 8.331182544791929 L 46.714525366396494 8.254086649925263 L 48.68860080848815 8.270601104730702 L 50.65381708310453 8.380135172950876 L 52.60580656046652 8.58189077022673 L 54.54025712139197 8.874865468041937 L 56.45292168290952 9.257855950450566 L 58.339627521536556 9.72946191317988 L 60.19628537375906 10.288090393726128 L 62.01889829387043 10.931960520118253 L 63.80357024999563 11.659108665115312 L 65.54651443983177 12.467393991728969 L 67.24406130838543 13.3545043751262 L 68.89266625077065 14.317962685169 L 70.48891698395244 15.355133413091263 L 72.02954057217504 16.46322962509816 L 73.51141009169892 17.639320225002102 L 74.93155092138626 18.880337507384112 L 76.28714664661514 20.183084982189214 L 77.57554456497046 21.544245451133637 L 78.79426078314575 22.960389315816787 L 79.9409848955012 24.427983096999 L 81.01358423574585 25.94339814412067 L 82.01010769425403 27.502919513806717 L 82.92878909457858 29.10275499581911 L 83.76805012378468 30.73904426469016 L 84.52650281229926 32.407868135092556 L 85.20295156004407 34.10525789887769 L 85.79639470669768 35.8272047216399 L 86.30602564500707 37.56966907664604 L 86.73123347714306 39.32859019399947 L 87.07160321516143 41.09989550299362 L 87.32691552769016 42.879510045742435 L 87.49714603601461 44.66336584036405 L 87.58246416376628 46.44741117222606 L 87.58323154544412 48.2276197920497 L 87.5 49.99999999999999 L 87.33350907670363 48.23939640472711 L 87.08468318146473 46.49446532888532 L 86.7546282927272 44.76904176431724 L 86.34462827696147 43.06689136032816 L 85.85614081466433 41.391702207813495 L 85.29079294862765 39.74707685305831 L 84.65037626705886 38.1365245584928 L 83.93684173492117 36.563453827009255 L 83.15229418761432 35.03116520573918 L 82.29898650182834 33.54284438444142 L 81.37931345907965 32.10155560287928 L 80.39580531807252 30.710235380756103 L 79.3511211126227 29.371686582947376 L 78.24804169243093 28.08857283190609 L 77.0894625245011 26.86341327823719 L 75.87838627346011 25.69857773953154 L 74.6179151794531 24.59628221662719 L 73.31124325265871 23.558584795526286 L 71.96164830379165 22.58738194224118 L 70.57248383023655 21.68440519687684 L 69.14717077768485 20.851218272281578 L 67.68918919732539 20.089214561612952 L 66.20206981877234 19.399615058178988 L 64.68938555899499 18.783466689922317 L 63.15474298754996 18.241641069924512 L 61.60177376840123 17.77483366331778 L 60.03412609855237 17.383563370006982 L 58.45545616360507 17.068172521626547 L 56.86941963020185 16.828827290187682 L 55.27966319510779 16.6655185049141 L 53.68981621043637 16.578062872819583 L 52.10348240423201 16.566104597652902 L 50.52423171528201 16.629117390924574 L 48.95559226065224 16.76640686783942 L 47.40104245401513 16.977113320090133 L 45.864003292377966 17.260214856622227 L 44.347830828314414 17.614530902661805 L 42.85580884426324 18.038726046506024 L 41.39114174487971 18.531314222814338 L 39.9569476828142 19.090663220407514 L 38.55625193264654 19.71499950188305 L 37.19198052702831 20.402413321691615 L 35.86695416837872 21.150864128690223 L 34.58388242874511 21.958186238596365 L 33.34535824967914 22.822094761213307 L 32.153852753194855 23.740191766782658 L 31.01171037406892 24.709972675345764 L 29.92114432291628 25.728832852562636 L 28.884232388630863 26.794074395046124 L 27.90291308792039 27.902913087920393 L 26.978982168790765 29.052485517008314 L 26.114089473950525 30.239856317790625 L 25.309736169211078 31.462025543063334 L 24.56727234105723 32.71593613104698 L 23.887894966655924 33.998481455574066 L 23.272646258662157 35.306512939897694 L 22.7224123862713 36.63684771562658 L 22.23792257305957 37.98627630829789 L 21.81974857125024 39.351570331149894 L 21.46830451114539 40.72949016875158 L 21.18384712357328 42.11679263228449 L 20.966476332322266 43.51023856845286 L 20.816136212664823 44.90660040422249 L 20.73261631122291 46.30266960985302 L 20.71555332158936 47.69526406299455 L 20.764433109302345 49.08123529696474 L 20.878593078971633 50.45747561670678 L 21.057224875580122 51.820925066350085 L 21.29937741123168 53.16857823275392 L 21.603960207889788 54.49749086990664 L 21.969747045951955 55.804786329580175 L 22.395379907834016 57.08766178419836 L 22.87937320509738 58.34339422846663 L 23.420118277043123 59.56934624692948 L 24.015888148120062 60.76297153526815 L 24.66484253095146 61.92182016382204 L 25.365033061277668 63.04354357251348 L 26.114408750640564 64.12589928707281 L 26.910821642201537 65.16675534719839 L 27.752032654688946 66.16409443804302 L 28.635717599113224 67.11601771718992 L 29.559473352569977 68.02074833006951 L 30.520824173173498 68.87663460756653 L 31.517228139925408 69.6821529403781 L 32.546083701126314 70.43591032550083 L 33.604736314782876 71.13664658104972 L 34.690485164347706 71.78323622644123 L 35.80058993305659 72.3746900258034 L 36.93227762009525 72.91015619330729 L 38.0827493818369 73.38892125994465 L 39.24918738144153 73.810410602101 L 40.42876163019837 74.17418863309453 L 41.61863680412288 74.47995865966274 L 42.815979019489845 74.72756240618128 L 44.017962551192426 74.91697921019048 L 45.22177647806402 75.04832489358157 L 46.42463123958384 75.12185031455765 L 47.623765088707515 75.13793960622777 L 48.81645042592022 75.0971081084195" fill="black"></path>
</svg>